<svg xmlns="http://www.w3.org/2000/svg" viewBox="0 0 846.6 623.6">
  <linearGradient id="a" gradientUnits="userSpaceOnUse" x1="320.8" y1="375.3" x2="489.5" y2="375.3">
    <stop offset="0" stop-color="#4d4d4d" stop-opacity="0"/>
    <stop offset="1" stop-color="#339989"/>
  </linearGradient>
  <path fill="none" stroke="url(#a)" stroke-width="5" stroke-miterlimit="10" d="M487 381v12l-13 13h-77l-32-32h-32l-10-10v-22"/>
  <linearGradient id="b" gradientUnits="userSpaceOnUse" x1="303.2" y1="381.5" x2="502.3" y2="381.5">
    <stop offset="0" stop-color="#4d4d4d" stop-opacity="0"/>
    <stop offset="1" stop-color="#339989"/>
  </linearGradient>
  <path fill="none" stroke="url(#b)" stroke-width="5" stroke-miterlimit="10" d="M500 381l-1 18-19 20h-89l-29-29h-35l-21-21v-27"/>
  <linearGradient id="c" gradientUnits="userSpaceOnUse" x1="206.3" y1="407.3" x2="515.1" y2="407.3">
    <stop offset="0" stop-color="#4d4d4d" stop-opacity="0"/>
    <stop offset="1" stop-color="#339989"/>
  </linearGradient>
  <path fill="none" stroke="url(#c)" stroke-width="5" stroke-miterlimit="10" d="M513 381l-1 25-25 25H256l-48-48"/>
  <linearGradient id="d" gradientUnits="userSpaceOnUse" x1="193.5" y1="413.7" x2="527.9" y2="413.7">
    <stop offset="0" stop-color="#4d4d4d" stop-opacity="0"/>
    <stop offset="1" stop-color="#339989"/>
  </linearGradient>
  <path fill="none" stroke="url(#d)" stroke-width="5" stroke-miterlimit="10" d="M525 381v31l-32 32H250l-55-54"/>
  <linearGradient id="e" gradientUnits="userSpaceOnUse" x1="102.5" y1="420.1" x2="540.7" y2="420.1">
    <stop offset="0" stop-color="#4d4d4d" stop-opacity="0"/>
    <stop offset="1" stop-color="#339989"/>
  </linearGradient>
  <path fill="none" stroke="url(#e)" stroke-width="5" stroke-miterlimit="10" d="M538 381v38l-39 38H160l-32-32h-26"/>
  <linearGradient id="f" gradientUnits="userSpaceOnUse" x1="70.4" y1="426.5" x2="553.5" y2="426.5">
    <stop offset="0" stop-color="#4d4d4d" stop-opacity="0"/>
    <stop offset="1" stop-color="#339989"/>
  </linearGradient>
  <path fill="none" stroke="url(#f)" stroke-width="5" stroke-miterlimit="10" d="M551 381v44l-45 45H70"/>
  <linearGradient id="g" gradientUnits="userSpaceOnUse" x1="70.4" y1="432.9" x2="566.3" y2="432.9">
    <stop offset="0" stop-color="#4d4d4d" stop-opacity="0"/>
    <stop offset="1" stop-color="#339989"/>
  </linearGradient>
  <path fill="none" stroke="url(#g)" stroke-width="5" stroke-miterlimit="10" d="M564 381l-1 50-51 52H70"/>
  <linearGradient id="h" gradientUnits="userSpaceOnUse" x1="0" y1="468.1" x2="579.1" y2="468.1">
    <stop offset="0" stop-color="#4d4d4d" stop-opacity="0"/>
    <stop offset="1" stop-color="#339989"/>
  </linearGradient>
  <path fill="none" stroke="url(#h)" stroke-width="5" stroke-miterlimit="10" d="M577 381l-1 57-57 58H122l-58 57H0"/>
  <linearGradient id="i" gradientUnits="userSpaceOnUse" x1="0" y1="477.7" x2="591.9" y2="477.7">
    <stop offset="0" stop-color="#4d4d4d" stop-opacity="0"/>
    <stop offset="1" stop-color="#339989"/>
  </linearGradient>
  <path fill="none" stroke="url(#i)" stroke-width="5" stroke-miterlimit="10" d="M589 381v63l-64 64H134l-64 64H0"/>
  <linearGradient id="j" gradientUnits="userSpaceOnUse" x1="240.8" y1="501.9" x2="604.4" y2="501.9">
    <stop offset="0" stop-color="#4d4d4d" stop-opacity="0"/>
    <stop offset="1" stop-color="#339989"/>
  </linearGradient>
  <path fill="none" stroke="url(#j)" stroke-width="5" stroke-miterlimit="10" d="M602 380v71l-71 70H301l-38 39v32l-20 19v13"/>
  <linearGradient id="k" gradientUnits="userSpaceOnUse" x1="279.2" y1="501.9" x2="617.2" y2="501.9">
    <stop offset="0" stop-color="#4d4d4d" stop-opacity="0"/>
    <stop offset="1" stop-color="#339989"/>
  </linearGradient>
  <path fill="none" stroke="url(#k)" stroke-width="5" stroke-miterlimit="10" d="M615 380v77l-77 77H307l-25 26v32l19 19v13"/>
  <g>
    <linearGradient id="l" gradientUnits="userSpaceOnUse" x1="613.6" y1="109.9" x2="846.6" y2="109.9">
      <stop offset="0" stop-color="#339989"/>
      <stop offset="1" stop-color="#339989" stop-opacity="0"/>
    </linearGradient>
    <path fill="none" stroke="url(#l)" stroke-width="5" stroke-miterlimit="10" d="M616 159v-51l45-45h102l23 23 19 19h42"/>
    <linearGradient id="m" gradientUnits="userSpaceOnUse" x1="600.1" y1="103.3" x2="846.6" y2="103.3">
      <stop offset="0" stop-color="#339989"/>
      <stop offset="1" stop-color="#339989" stop-opacity="0"/>
    </linearGradient>
    <path fill="none" stroke="url(#m)" stroke-width="5" stroke-miterlimit="10" d="M603 159v-58l51-51h115l42 42h36"/>
    <linearGradient id="n" gradientUnits="userSpaceOnUse" x1="587.3" y1="83" x2="735.8" y2="83">
      <stop offset="0" stop-color="#339989"/>
      <stop offset="1" stop-color="#339989" stop-opacity="0"/>
    </linearGradient>
    <path fill="none" stroke="url(#n)" stroke-width="5" stroke-miterlimit="10" d="M590 159V95l58-58h58l28-28"/>
    <linearGradient id="o" gradientUnits="userSpaceOnUse" x1="574.5" y1="79.5" x2="723.2" y2="79.5">
      <stop offset="0" stop-color="#339989"/>
      <stop offset="1" stop-color="#339989" stop-opacity="0"/>
    </linearGradient>
    <path fill="none" stroke="url(#o)" stroke-width="5" stroke-miterlimit="10" d="M577 159V89l64-64h58l22-23"/>
    <linearGradient id="p" gradientUnits="userSpaceOnUse" x1="561.7" y1="82.2" x2="592.3" y2="82.2">
      <stop offset="0" stop-color="#339989"/>
      <stop offset="1" stop-color="#339989" stop-opacity="0"/>
    </linearGradient>
    <path fill="none" stroke="url(#p)" stroke-width="5" stroke-miterlimit="10" d="M564 159V82l26-25V5"/>
    <linearGradient id="q" gradientUnits="userSpaceOnUse" x1="523.3" y1="82.2" x2="553.9" y2="82.2">
      <stop offset="0" stop-color="#339989" stop-opacity="0"/>
      <stop offset="1" stop-color="#339989"/>
    </linearGradient>
    <path fill="none" stroke="url(#q)" stroke-width="5" stroke-miterlimit="10" d="M551 159V82l-25-25V5"/>
    <linearGradient id="r" gradientUnits="userSpaceOnUse" x1="447.5" y1="94.3" x2="541.1" y2="94.3">
      <stop offset="0" stop-color="#339989" stop-opacity="0"/>
      <stop offset="1" stop-color="#339989"/>
    </linearGradient>
    <path fill="none" stroke="url(#r)" stroke-width="5" stroke-miterlimit="10" d="M539 159V89l-32-32h-32l-26-26"/>
    <linearGradient id="s" gradientUnits="userSpaceOnUse" x1="437.7" y1="98.8" x2="528.3" y2="98.8">
      <stop offset="0" stop-color="#339989" stop-opacity="0"/>
      <stop offset="1" stop-color="#339989"/>
    </linearGradient>
    <path fill="none" stroke="url(#s)" stroke-width="5" stroke-miterlimit="10" d="M526 159V95l-25-25h-32l-29-30"/>
    <linearGradient id="t" gradientUnits="userSpaceOnUse" x1="276" y1="93.7" x2="515.5" y2="93.7">
      <stop offset="0" stop-color="#339989" stop-opacity="0"/>
      <stop offset="1" stop-color="#339989"/>
    </linearGradient>
    <path fill="none" stroke="url(#t)" stroke-width="5" stroke-miterlimit="10" d="M513 159v-58l-19-19H385l-51-51h-58"/>
    <linearGradient id="u" gradientUnits="userSpaceOnUse" x1="389.5" y1="132.1" x2="502.7" y2="132.1">
      <stop offset="0" stop-color="#339989" stop-opacity="0"/>
      <stop offset="1" stop-color="#339989"/>
    </linearGradient>
    <path fill="none" stroke="url(#u)" stroke-width="5" stroke-miterlimit="10" d="M500 159v-26l-25-25h-58l-26 25"/>
    <linearGradient id="v" gradientUnits="userSpaceOnUse" x1="400.7" y1="140.1" x2="489.8" y2="140.1">
      <stop offset="0" stop-color="#339989" stop-opacity="0"/>
      <stop offset="1" stop-color="#339989"/>
    </linearGradient>
    <path fill="none" stroke="url(#v)" stroke-width="5" stroke-miterlimit="10" d="M487 159v-19l-16-16h-48l-20 21"/>
  </g>
</svg>
